<svg xmlns="http://www.w3.org/2000/svg" viewBox="0 0 43 30.05"><title>lunch_small</title><g id="Слой_2" data-name="Слой 2"><g id="Слой_1-2" data-name="Слой 1"><path d="M22.17,30A14.21,14.21,0,1,1,36.38,15.84,14.22,14.22,0,0,1,22.17,30Zm0-27.51a13.3,13.3,0,1,0,13.3,13.3A13.32,13.32,0,0,0,22.17,2.54Z"/><path d="M22.17,26.31A10.46,10.46,0,1,1,32.63,15.84,10.47,10.47,0,0,1,22.17,26.31Zm0-20a9.57,9.57,0,1,0,6.76,2.8A9.57,9.57,0,0,0,22.17,6.28Z"/><path d="M42.55,29.87H40.28a.45.45,0,0,1-.45-.45c0-3.48.33-10,.43-11.78-1.79-.09-1.79-.69-1.79-.89A54.75,54.75,0,0,1,39.62,4C40,2.51,40.77.06,42,.06c.5,0,1,.46,1,1.75V29.42A.45.45,0,0,1,42.55,29.87ZM40.74,29h1.36V1.81A1.54,1.54,0,0,0,41.93,1c-.49.21-2.54,3.4-2.55,15.61a5.15,5.15,0,0,0,1.36.16.45.45,0,0,1,.45.48C41.18,17.3,40.77,24.83,40.74,29Z"/><path d="M4.75,29.87H2.49A.45.45,0,0,1,2,29.42c0-4,.45-12.16.45-12.25a.45.45,0,0,1,.45-.43H4.3a.45.45,0,0,1,.45.44L5.2,29.4a.45.45,0,0,1-.45.47ZM2.94,29H4.28L3.86,17.65H3.37C3.28,19.31,3,25.4,2.94,29Z"/><path d="M3.62,17.65a.45.45,0,0,1-.45-.45V9.05a.45.45,0,0,1,.91,0V17.2A.45.45,0,0,1,3.62,17.65Z"/><path d="M3.62,9.51C1.18,9.51,0,8.62,0,6.79a.45.45,0,0,1,.45-.45H6.79a.45.45,0,0,1,.45.45C7.24,7.61,6.89,9.51,3.62,9.51ZM.93,7.24C1,7.86,1.47,8.6,3.62,8.6c1.56,0,2.45-.46,2.67-1.36Z"/><path d="M2.57,7.24a.45.45,0,0,1-.45-.45V.45A.45.45,0,0,1,3,.45V6.79A.45.45,0,0,1,2.57,7.24Z"/><path d="M.45,7.24A.45.45,0,0,1,0,6.79V.45a.45.45,0,0,1,.91,0V6.79A.45.45,0,0,1,.45,7.24Z"/><path d="M4.68,7.24a.45.45,0,0,1-.45-.45V.45a.45.45,0,0,1,.91,0V6.79A.45.45,0,0,1,4.68,7.24Z"/><path d="M6.79,7.24a.45.45,0,0,1-.45-.45V.45a.45.45,0,0,1,.91,0V6.79A.45.45,0,0,1,6.79,7.24Z"/><path d="M27.61,16.31H22.18a.47.47,0,0,1-.47-.47V10.41a.47.47,0,0,1,.95,0v5h5a.47.47,0,1,1,0,.95Z"/><path d="M22.18,28.06a.45.45,0,0,1-.45-.45V25.8a.45.45,0,1,1,.91,0v1.81A.45.45,0,0,1,22.18,28.06Z"/><path d="M22.18,6.34a.45.45,0,0,1-.45-.45V4.07a.45.45,0,0,1,.91,0V5.88A.45.45,0,0,1,22.18,6.34Z"/><path d="M12.22,16.29H10.41a.45.45,0,1,1,0-.91h1.81a.45.45,0,0,1,0,.91Z"/><path d="M33.95,16.29H32.14a.45.45,0,0,1,0-.91h1.81a.45.45,0,0,1,0,.91Z"/></g></g></svg>